<svg xmlns="http://www.w3.org/2000/svg" viewBox="0 0 96 96" role="img" aria-label="Chinese Male voice portrait">
  <defs><linearGradient id="bg" x1="0" y1="0" x2="1" y2="1"><stop offset="0" stop-color="#fecaca"/><stop offset="1" stop-color="#dc2626"/></linearGradient></defs>
  <rect width="96" height="96" fill="url(#bg)"/>
  <path d="M12 96c2-16 15-24 36-24s34 8 36 24z" fill="#1f2937"/>
  <path d="M38 72c3 6 17 6 20 0l2 4c-4 8-20 8-24 0z" fill="#000" opacity=".1"/>
  <path d="M41 58h14v14c-3 4-11 4-14 0z" fill="#e2ab88"/>
  <ellipse cx="30.5" cy="48" rx="3" ry="5" fill="#e2ab88"/><ellipse cx="65.5" cy="48" rx="3" ry="5" fill="#e2ab88"/>
  <path d="M31 42c0-12 7-19 17-19s17 7 17 19v6c0 12-8 21-17 21s-17-9-17-21z" fill="#f3c7a6"/>
  <path d="M30 43c-2-16 6-25 18-25s20 9 18 25c-2-7-5-11-9-12-6 2-14 2-20 0-3 2-5 6-7 12z" fill="#111111"/>
  <path d="M35.5 44c2-1.5 5-1.5 7 0M53.5 44c2-1.5 5-1.5 7 0" fill="none" stroke="#111111" stroke-width="2" stroke-linecap="round"/>
  <ellipse cx="39" cy="48.5" rx="2" ry="2.2" fill="#221a15"/><ellipse cx="57" cy="48.5" rx="2" ry="2.2" fill="#221a15"/>
  <g fill="none" stroke="#1f2937" stroke-width="1.6"><rect x="33" y="44" width="12" height="9" rx="3.5"/><rect x="51" y="44" width="12" height="9" rx="3.5"/><path d="M45 47.500h6"/></g>
  <path d="M48 50v5.500l-2 1.500h4" fill="none" stroke="#e2ab88" stroke-width="1.5" stroke-linecap="round" stroke-linejoin="round"/>
  <path d="M42.5 61.5c3 2 8 2 11 0" fill="none" stroke="#6b3b2a" stroke-width="1.8" stroke-linecap="round"/>
</svg>
